<svg xmlns="http://www.w3.org/2000/svg" viewBox="0 0 450.96 195.5"><defs><style>.cls-1{fill:#aac3dc;}.cls-2{fill:#ffe691;}.cls-3{fill:#87afcd;}.cls-4{fill:#ffe37f;}.cls-5{fill:#3776ab;}.cls-6{fill:#787878;}.cls-7{fill:#5f8cb9;}</style></defs><title>Asset 2</title><g id="Layer_2" data-name="Layer 2"><g id="Layer_1-2" data-name="Layer 1"><path class="cls-1" d="M9,110a9,9,0,1,1,9-9A9,9,0,0,1,9,110Zm-9-9V75.5H18V101ZM9,84.5a9,9,0,1,1,9-9A9,9,0,0,1,9,84.5Z"/><path class="cls-2" d="M35,97.5a9,9,0,1,1,9-9A9,9,0,0,1,35,97.5Zm-9-9v-48H44v48Zm9-39a9,9,0,1,1,9-9A9,9,0,0,1,35,49.5Z"/><path class="cls-3" d="M61,138a9,9,0,1,1,9-9A9,9,0,0,1,61,138Zm-9-9V57H70v72Zm9-63a9,9,0,1,1,9-9A9,9,0,0,1,61,66Z"/><path class="cls-4" d="M87,195.5a9,9,0,1,1,9-9A9,9,0,0,1,87,195.5ZM78,187V73H96V187ZM87,82a9,9,0,1,1,9-9A9,9,0,0,1,87,82Z"/><path class="cls-5" d="M113,154.5a9,9,0,1,1,9-9A9,9,0,0,1,113,154.5Zm-9-8.5V8h18V146Zm9-128a9,9,0,1,1,9-9A9,9,0,0,1,113,18Z"/><path class="cls-6" d="M441.67,104.08l.12.12a24.59,24.59,0,0,0-.66-5.66,18.64,18.64,0,0,0-2-5.07,10.47,10.47,0,0,0-3.46-3.63,9.07,9.07,0,0,0-5-1.37,9.88,9.88,0,0,0-5.3,1.37,10.78,10.78,0,0,0-3.57,3.63,18.63,18.63,0,0,0-2.08,5,32.93,32.93,0,0,0-.95,5.6ZM419.22,118.5a20.39,20.39,0,0,0,3.16,7.16,14.52,14.52,0,0,0,5.18,4.53,13.59,13.59,0,0,0,6.73,1.43,24.57,24.57,0,0,0,7.91-1.38,62.88,62.88,0,0,0,6.73-2.93l2,4.19c-1.36.87-2.74,1.69-4.17,2.44a29,29,0,0,1-4.77,2,36.65,36.65,0,0,1-5.95,1.19,32.58,32.58,0,0,1-6.25.12,24.17,24.17,0,0,1-6.07-1.25,15.17,15.17,0,0,1-5.18-3,25.32,25.32,0,0,1-6.73-9.5,31.76,31.76,0,0,1-2.44-12.49,46.24,46.24,0,0,1,1.13-10.15,28.16,28.16,0,0,1,3.63-9,20,20,0,0,1,6.49-6.4A18.25,18.25,0,0,1,430.36,83a21.2,21.2,0,0,1,9.22,1.8,16.11,16.11,0,0,1,6.2,5.21,22.49,22.49,0,0,1,3.51,8.26,56.48,56.48,0,0,1,1.19,11H418.57A30.49,30.49,0,0,0,419.22,118.5ZM393.29,93.24a49.68,49.68,0,0,0-6.43-3.34,19.24,19.24,0,0,0-7-1.43,10.49,10.49,0,0,0-6.91,2.26,16.5,16.5,0,0,0-4.35,5.6,28.65,28.65,0,0,0-2.32,7.22,35.77,35.77,0,0,0-.06,13.88,25.11,25.11,0,0,0,2.27,6.92,16.53,16.53,0,0,0,4.28,5.42,10.06,10.06,0,0,0,6.61,2.2,19.46,19.46,0,0,0,7.8-1.61,34.55,34.55,0,0,0,6.13-3.27Zm-3.09,41.48a35.78,35.78,0,0,1-13.46,2.5,16.7,16.7,0,0,1-9.23-2.5,21.69,21.69,0,0,1-6.43-6.44,28.65,28.65,0,0,1-3.75-8.76,39.71,39.71,0,0,1-1.19-9.48,35.75,35.75,0,0,1,1.37-9.65,29.62,29.62,0,0,1,4.05-8.82,21.46,21.46,0,0,1,6.73-6.38,17.79,17.79,0,0,1,9.4-2.44,30.73,30.73,0,0,1,8,1,46,46,0,0,1,7.62,2.8V55.93l8.34-2.86.12,75A48.43,48.43,0,0,1,390.2,134.72Zm-49.58-25.51h-5.15q-3.12,0-6.34.12a13,13,0,0,0-8.38,2.68,9.26,9.26,0,0,0-3.35,7.69,10.85,10.85,0,0,0,.89,4.35,11.65,11.65,0,0,0,2.52,3.69,13.12,13.12,0,0,0,3.77,2.62,11,11,0,0,0,4.79,1,14.37,14.37,0,0,0,6.94-1.43,15.36,15.36,0,0,0,4.31-2.86Zm-1.25,25.51a32.49,32.49,0,0,1-13.76,2.5,17.9,17.9,0,0,1-6.67-1.49,17.64,17.64,0,0,1-5.41-3.68,16.68,16.68,0,0,1-3.63-5.4,15.4,15.4,0,0,1-1.19-6.65,15.84,15.84,0,0,1,1.42-6.83,15.28,15.28,0,0,1,3.87-5.11,16.93,16.93,0,0,1,5.66-3.15,22.18,22.18,0,0,1,7-1.07h14.17V98.68a9,9,0,0,0-1-4.15,10.26,10.26,0,0,0-2.5-3.18,11.1,11.1,0,0,0-3.63-2,12.88,12.88,0,0,0-4.23-.72,24.26,24.26,0,0,0-7.08,1,39.22,39.22,0,0,0-6.61,2.74l-2.14-5a38,38,0,0,1,8.69-3.52,38.76,38.76,0,0,1,9.41-1,19.58,19.58,0,0,1,6.37,1.07,17.34,17.34,0,0,1,5.53,3,15.3,15.3,0,0,1,3.87,4.83,13.73,13.73,0,0,1,1.49,6.43v30.16A31.87,31.87,0,0,1,339.37,134.72ZM306.74,86.5c-.63,1.23-1.19,2.4-1.67,3.52l-2.61-.48a12.91,12.91,0,0,0-2.27-.24h-.12a17.81,17.81,0,0,0-7.32,1.37,23.13,23.13,0,0,0-5.42,3.4v42.2h-8.69V92.88A28.57,28.57,0,0,1,291,84.77a43.1,43.1,0,0,1,8-2.08,29.14,29.14,0,0,1,9.53.29C308,84.1,307.38,85.27,306.74,86.5ZM261.5,67v69.26h-8.69V67H230.42l2.74-5.84,50.36-.12v6Zm-24.8,69.37c-.08,1.83-.22,6.59-.42,8.42s-.48,3.57-.83,5.24a16.68,16.68,0,0,1-1.49,4.29,16.49,16.49,0,0,1-4.65,5.37,27.59,27.59,0,0,1-6.54,3.69,36.43,36.43,0,0,1-7.33,2.09,53.22,53.22,0,0,1-7.08.77l-1.43-5.48c1.67-.24,3.47-.52,5.42-.83a38.81,38.81,0,0,0,5.65-1.37,20.62,20.62,0,0,0,5.06-2.45,10.85,10.85,0,0,0,3.64-4.05,9.62,9.62,0,0,0,1.07-3,35.81,35.81,0,0,0,.53-3.7q.18-1.9.24-3.75c0-1.23.06-5.26.06-6.21a5.67,5.67,0,0,1,.06-1.13,4.08,4.08,0,0,0-.06-1.13c-1.35.63-3.53,1.47-6.55,2.5a38.64,38.64,0,0,1-12.14,1.55,18.56,18.56,0,0,1-6-1,17.66,17.66,0,0,1-5.41-3,15,15,0,0,1-3.93-4.83,13.65,13.65,0,0,1-1.49-6.44V85.73l8.69-3v36.47q0,6.07,3.83,9.12a14.62,14.62,0,0,0,9.69,2.92,19.46,19.46,0,0,0,7-1.67,36.76,36.76,0,0,0,5.74-3V84.06h8.7v47.32C236.82,132.89,236.77,134.56,236.7,136.38Zm-58-60.55a14.36,14.36,0,0,0-7.24-7.45,12.6,12.6,0,0,0-5.32-1.13h-14V95.14h13.75A13.41,13.41,0,0,0,176,91.21,14.08,14.08,0,0,0,179.78,81,13,13,0,0,0,178.71,75.83Zm8.22,13.29a19.87,19.87,0,0,1-4.23,6.32,19,19,0,0,1-6.31,4.17,20.53,20.53,0,0,1-7.92,1.49H152.16v35.17h-8.69V61.05h15.95q4.17,0,7.74-.12a21.63,21.63,0,0,1,15.12,6,20.72,20.72,0,0,1,4.53,6.38,18.85,18.85,0,0,1,1.67,7.93A20,20,0,0,1,186.93,89.12Z"/><path class="cls-7" d="M449.8,166.9h-2.37l-4.22-6.79-1.13,1.07v5.72h-2V147.47l2-.72v12.49l5.65-5.38,1,1-4,3.79Zm-12.49-12.07c-.15.3-.27.58-.38.85l-.61-.11a2.77,2.77,0,0,0-.53-.06h0a4,4,0,0,0-1.7.33,5.2,5.2,0,0,0-1.25.82V166.9h-2V156.38a6.53,6.53,0,0,1,2.87-2,10.17,10.17,0,0,1,1.85-.51,6.49,6.49,0,0,1,2.21.08Zm-12,3.78a5.26,5.26,0,0,0-.56-1.56,3.41,3.41,0,0,0-1-1.17,3.11,3.11,0,0,0-1.61-.52,3.22,3.22,0,0,0-1.69.52,3.32,3.32,0,0,0-1,1.17,4.68,4.68,0,0,0-.5,1.56,12.3,12.3,0,0,0-.13,1.71h0a12.23,12.23,0,0,0,.15,1.89,6,6,0,0,0,.54,1.76,3.9,3.9,0,0,0,1,1.33,2.42,2.42,0,0,0,1.61.53,2.74,2.74,0,0,0,1.7-.55,3.43,3.43,0,0,0,1-1.32,6.62,6.62,0,0,0,.48-1.76,15.07,15.07,0,0,0,.12-1.88A9,9,0,0,0,425.35,158.61Zm2,4.26a6.75,6.75,0,0,1-1,2.18,5.13,5.13,0,0,1-1.74,1.53,5,5,0,0,1-2.45.58,4.8,4.8,0,0,1-2.43-.58,5.22,5.22,0,0,1-1.71-1.53,6.53,6.53,0,0,1-1-2.18,9.3,9.3,0,0,1-.34-2.53,7.82,7.82,0,0,1,.38-2.43,6.25,6.25,0,0,1,1.09-2,5.46,5.46,0,0,1,1.74-1.42,5,5,0,0,1,2.31-.53,5.1,5.1,0,0,1,2.34.53,5.43,5.43,0,0,1,1.73,1.42,6.65,6.65,0,0,1,1.09,2,7.54,7.54,0,0,1,.39,2.43A9.31,9.31,0,0,1,427.37,162.87Zm-15.47,3.66-1.66.6L407.07,157l-2.59,9.49-1.66.6-3.89-12.52,1.85-.69,3.09,9.86,2.45-9.17,1.85-.69,3.12,9.86,2.65-9.86,1.24.46Zm-16.69-7.44,0,0a6.32,6.32,0,0,0-.15-1.37,4.74,4.74,0,0,0-.46-1.23,2.43,2.43,0,0,0-.8-.88,2,2,0,0,0-1.16-.33,2.24,2.24,0,0,0-1.23.33,2.48,2.48,0,0,0-.82.88,4.72,4.72,0,0,0-.49,1.22,8.64,8.64,0,0,0-.22,1.35Zm-5.2,3.5a5.1,5.1,0,0,0,.73,1.74,3.39,3.39,0,0,0,1.2,1.1,3,3,0,0,0,1.56.34,5.39,5.39,0,0,0,1.84-.33,14.3,14.3,0,0,0,1.55-.71l.47,1c-.31.21-.63.41-1,.59a7.12,7.12,0,0,1-1.11.48,7.67,7.67,0,0,1-1.38.28,6.92,6.92,0,0,1-1.44,0,5.53,5.53,0,0,1-1.41-.3,3.4,3.4,0,0,1-1.2-.74,6.17,6.17,0,0,1-1.56-2.3,8,8,0,0,1-.57-3,11.31,11.31,0,0,1,.27-2.46,6.78,6.78,0,0,1,.84-2.18,4.73,4.73,0,0,1,1.5-1.55,4.06,4.06,0,0,1,2.25-.59,4.75,4.75,0,0,1,2.14.43,3.64,3.64,0,0,1,1.43,1.27,5.57,5.57,0,0,1,.82,2,14.83,14.83,0,0,1,.27,2.66h-7.39A7.39,7.39,0,0,0,390,162.59Zm-7.36,4.31,0-8.62a3.25,3.25,0,0,0-.69-2.24,2.72,2.72,0,0,0-2.21-.71,2.54,2.54,0,0,0-1.11.34,6,6,0,0,0-.93.59,2.68,2.68,0,0,1,.09.46c0,.18,0,.34,0,.49v9.69h-2v-8.62a3.29,3.29,0,0,0-.69-2.25,2.64,2.64,0,0,0-2.26-.67,2.52,2.52,0,0,0-1.11.35,2.81,2.81,0,0,0-.77.58V166.9h-2V156c.44-.35.84-.65,1.22-.91a7.35,7.35,0,0,1,1.14-.65,6.22,6.22,0,0,1,1.24-.41,7.64,7.64,0,0,1,1.52-.14,4,4,0,0,1,1.6.32,3.7,3.7,0,0,1,1.32.92,9.32,9.32,0,0,1,1.82-.9,7,7,0,0,1,2.12-.34,3.92,3.92,0,0,1,1.35.24,4,4,0,0,1,1.18.7,3.8,3.8,0,0,1,.86,1.08,3.19,3.19,0,0,1,.33,1.42v9.54Zm-19.08-6.56h-1.19l-1.47,0A2.86,2.86,0,0,0,359,161a2.28,2.28,0,0,0-.78,1.86,2.75,2.75,0,0,0,.21,1.06,2.79,2.79,0,0,0,.58.89,2.88,2.88,0,0,0,.87.64,2.44,2.44,0,0,0,1.11.25,3.2,3.2,0,0,0,1.61-.35,3.66,3.66,0,0,0,1-.69Zm-.29,6.19a7.24,7.24,0,0,1-3.19.6,4,4,0,0,1-1.54-.36,4.17,4.17,0,0,1-1.26-.89,4,4,0,0,1-.84-1.31,3.93,3.93,0,0,1-.27-1.61,4,4,0,0,1,.33-1.66,3.75,3.75,0,0,1,.89-1.24,3.82,3.82,0,0,1,1.31-.76,4.76,4.76,0,0,1,1.63-.26h3.28v-1.26a2.19,2.19,0,0,0-.22-1,2.48,2.48,0,0,0-.58-.78,2.69,2.69,0,0,0-.84-.49,2.78,2.78,0,0,0-1-.18,5.28,5.28,0,0,0-1.64.24,8.22,8.22,0,0,0-1.53.66l-.5-1.21a8.66,8.66,0,0,1,2-.86,8.81,8.81,0,0,1,2.18-.24,4.18,4.18,0,0,1,1.47.26,3.92,3.92,0,0,1,1.29.74,3.63,3.63,0,0,1,.89,1.17,3.44,3.44,0,0,1,.35,1.56V165A7.61,7.61,0,0,1,363.28,166.53Zm-8.88-11.7c-.14.3-.27.58-.38.85l-.61-.11a2.76,2.76,0,0,0-.52-.06h0a4,4,0,0,0-1.7.33,5.2,5.2,0,0,0-1.25.82V166.9h-2V156.38a6.53,6.53,0,0,1,2.87-2,10.17,10.17,0,0,1,1.85-.51,6.48,6.48,0,0,1,2.21.08Zm-8.26-4.67h-6.95v6.22H345l-.74,1.44h-5v9.08h-2V148.68h9.66Zm-23,6.36a10.45,10.45,0,0,0-1.48-.81,4,4,0,0,0-1.62-.32,2.4,2.4,0,0,0-1.58.52,3.91,3.91,0,0,0-1,1.32,6.06,6.06,0,0,0-.54,1.72,10.7,10.7,0,0,0-.15,1.71,9.89,9.89,0,0,0,.15,1.64,6.13,6.13,0,0,0,.52,1.65,3.93,3.93,0,0,0,1,1.26,2.19,2.19,0,0,0,1.49.51,3.49,3.49,0,0,0,1.69-.41c.51-.27,1-.57,1.55-.89Zm2,9.46a23.39,23.39,0,0,1-.13,2.44,5.88,5.88,0,0,1-.57,2.16,4.1,4.1,0,0,1-1.09,1.3,6.59,6.59,0,0,1-1.52.89,8.52,8.52,0,0,1-1.7.51,11.17,11.17,0,0,1-1.64.19l-.3-1.33,1.25-.21a7.18,7.18,0,0,0,1.31-.33,4.44,4.44,0,0,0,1.17-.59,2.69,2.69,0,0,0,.85-1,2.32,2.32,0,0,0,.24-.73,8.67,8.67,0,0,0,.13-.89c0-.31,0-.62.05-.92s0-.56,0-.79,0-.3,0-.45a2.29,2.29,0,0,0,0-.45,8.56,8.56,0,0,1-1.85,1,5.35,5.35,0,0,1-2.06.31,3.74,3.74,0,0,1-2.13-.59,5,5,0,0,1-1.49-1.53,7,7,0,0,1-.86-2.1,10.13,10.13,0,0,1-.28-2.31,9.44,9.44,0,0,1,.29-2.24,7.93,7.93,0,0,1,.89-2.16,5.44,5.44,0,0,1,1.47-1.62,3.53,3.53,0,0,1,2.1-.63,9,9,0,0,1,3,.55,8.29,8.29,0,0,1,2.9,1.76Zm-15.55.92v-8.62a2.88,2.88,0,0,0-.83-2.24,2.93,2.93,0,0,0-2.15-.73,4.24,4.24,0,0,0-1.53.33,5.52,5.52,0,0,0-1.2.65V166.9h-2V156a17.55,17.55,0,0,1,1.5-1,6.58,6.58,0,0,1,1.7-.71,11.22,11.22,0,0,1,1.72-.36,5.83,5.83,0,0,1,2.06.13,4.18,4.18,0,0,1,1.93,1.06,2.77,2.77,0,0,1,.82,2.09v9.69Zm-11.33,0h-2V154.61l2-.69Zm-.08-16.09a1.28,1.28,0,0,1-.94.39,1.22,1.22,0,0,1-.92-.39,1.34,1.34,0,0,1-.38-1v0a1.33,1.33,0,0,1,.39-1,1.28,1.28,0,0,1,.94-.39,1.2,1.2,0,0,1,.92.41,1.38,1.38,0,0,1,.38,1A1.31,1.31,0,0,1,298.16,150.81Zm-7.74,5.65a11.1,11.1,0,0,0-1.49-.81,4.19,4.19,0,0,0-1.63-.34,2.38,2.38,0,0,0-1.6.54,4.07,4.07,0,0,0-1,1.36,7.13,7.13,0,0,0-.54,1.75,9.24,9.24,0,0,0,0,3.37,6.58,6.58,0,0,0,.52,1.68,4,4,0,0,0,1,1.32,2.28,2.28,0,0,0,1.53.53,4.4,4.4,0,0,0,1.81-.39,7.91,7.91,0,0,0,1.42-.79Zm-.72,10.07a8,8,0,0,1-3.12.6,3.76,3.76,0,0,1-2.14-.6A5.41,5.41,0,0,1,283,165a7.45,7.45,0,0,1-.87-2.13,10.23,10.23,0,0,1-.27-2.3,8.68,8.68,0,0,1,.32-2.34,7.38,7.38,0,0,1,.93-2.14,5.24,5.24,0,0,1,1.56-1.55,4,4,0,0,1,2.18-.59,7,7,0,0,1,1.85.24,10.72,10.72,0,0,1,1.77.68v-7.43l1.93-.69,0,18.19A11.34,11.34,0,0,1,289.7,166.53Zm-12.78-6.19h-1.2l-1.47,0a2.9,2.9,0,0,0-1.94.65,2.3,2.3,0,0,0-.77,1.86,2.93,2.93,0,0,0,.2,1.06,2.82,2.82,0,0,0,.59.89,2.88,2.88,0,0,0,.87.64,2.39,2.39,0,0,0,1.11.25,3.2,3.2,0,0,0,1.61-.35,3.66,3.66,0,0,0,1-.69Zm-.29,6.19a7.27,7.27,0,0,1-3.19.6,4,4,0,0,1-1.54-.36,4.17,4.17,0,0,1-1.26-.89,4,4,0,0,1-.84-1.31,3.93,3.93,0,0,1-.28-1.61,4,4,0,0,1,.33-1.66,3.64,3.64,0,0,1,.9-1.24,3.73,3.73,0,0,1,1.31-.76,4.76,4.76,0,0,1,1.63-.26H277v-1.26a2.19,2.19,0,0,0-.22-1,2.65,2.65,0,0,0-.58-.78,2.69,2.69,0,0,0-.84-.49,2.78,2.78,0,0,0-1-.18,5.24,5.24,0,0,0-1.64.24,8.22,8.22,0,0,0-1.53.66l-.5-1.21a8.66,8.66,0,0,1,2-.86,8.78,8.78,0,0,1,2.17-.24,4.24,4.24,0,0,1,1.48.26,3.77,3.77,0,0,1,1.28.74,3.52,3.52,0,0,1,.9,1.17,3.44,3.44,0,0,1,.35,1.56V165A7.61,7.61,0,0,1,276.63,166.53Zm-8.88-11.7c-.15.3-.27.58-.38.85l-.61-.11a2.86,2.86,0,0,0-.53-.06h0a4,4,0,0,0-1.7.33,5.47,5.47,0,0,0-1.26.82V166.9h-2V156.38a6.53,6.53,0,0,1,2.87-2,10.17,10.17,0,0,1,1.85-.51,6.49,6.49,0,0,1,2.21.08Zm-11.88-4.73v16.8h-2V150.1h-5.18l.63-1.42,11.67,0v1.45Z"/></g></g></svg>